<svg width="18" height="26" viewBox="0 0 18 26" fill="none" xmlns="http://www.w3.org/2000/svg">
<path d="M9.6332 24.9836C11.6492 21.9461 17.3352 13.0371 17.3352 9.22013C17.3352 6.99231 16.4502 4.85574 14.8749 3.28043C13.2995 1.70513 11.163 0.820129 8.93516 0.820129C6.70734 0.820129 4.57076 1.70513 2.99546 3.28043C1.42015 4.85574 0.535156 6.99231 0.535156 9.22013C0.535156 13.0371 6.22112 21.9461 8.23712 24.9836C8.31336 25.099 8.41704 25.1937 8.53886 25.2592C8.66067 25.3247 8.79684 25.359 8.93516 25.359C9.07348 25.359 9.20964 25.3247 9.33146 25.2592C9.45327 25.1937 9.55695 25.099 9.6332 24.9836ZM3.05516 9.22013C3.05516 8.05717 3.40001 6.92034 4.04611 5.95338C4.69222 4.98641 5.61055 4.23276 6.68498 3.78772C7.75941 3.34267 8.94168 3.22623 10.0823 3.45311C11.2229 3.67999 12.2706 4.24001 13.0929 5.06234C13.9153 5.88467 14.4753 6.93239 14.7022 8.073C14.9291 9.21361 14.8126 10.3959 14.3676 11.4703C13.9225 12.5447 13.1689 13.4631 12.2019 14.1092C11.2349 14.7553 10.0981 15.1001 8.93516 15.1001C7.37568 15.1001 5.88008 14.4806 4.77737 13.3779C3.67465 12.2752 3.05516 10.7796 3.05516 9.22013Z" fill="#00223C"/>
<path d="M12.4268 6.49639C12.3488 6.41836 12.2562 6.35645 12.1543 6.31422C12.0523 6.27198 11.9431 6.25024 11.8327 6.25024C11.7224 6.25024 11.6131 6.27198 11.5112 6.31422C11.4093 6.35645 11.3167 6.41836 11.2386 6.49639L7.67495 10.0601L5.89289 8.27803C5.73532 8.12053 5.52164 8.03206 5.29886 8.0321C5.07607 8.03214 4.86242 8.12068 4.70492 8.27824C4.54741 8.43581 4.45895 8.64949 4.45898 8.87227C4.45902 9.09506 4.54756 9.30871 4.70513 9.46621L7.08107 11.8422C7.23859 11.9996 7.45221 12.0881 7.67495 12.0881C7.89768 12.0881 8.1113 11.9996 8.26883 11.8422L12.4268 7.68415C12.5843 7.52663 12.6728 7.31301 12.6728 7.09027C12.6728 6.86754 12.5843 6.65392 12.4268 6.49639Z" fill="#00223C"/>
<path d="M8.93477 15.5202C7.68875 15.5202 6.47071 15.1507 5.43468 14.4584C4.39865 13.7662 3.59116 12.7822 3.11433 11.6311C2.6375 10.4799 2.51273 9.21318 2.75582 7.9911C2.99891 6.76902 3.59892 5.64647 4.48 4.7654C5.36107 3.88433 6.48362 3.28431 7.7057 3.04122C8.92778 2.79813 10.1945 2.9229 11.3457 3.39973C12.4968 3.87656 13.4808 4.68405 14.173 5.72008C14.8653 6.75611 15.2348 7.97415 15.2348 9.22017C15.2329 10.8905 14.5685 12.4918 13.3875 13.6729C12.2064 14.8539 10.6051 15.5183 8.93477 15.5202ZM8.93477 3.76017C7.85488 3.76017 6.79925 4.08039 5.90136 4.68034C5.00346 5.2803 4.30364 6.13303 3.89039 7.13072C3.47713 8.1284 3.36901 9.22623 3.57968 10.2854C3.79036 11.3445 4.31037 12.3174 5.07397 13.081C5.83756 13.8446 6.81044 14.3646 7.86957 14.5753C8.92871 14.7859 10.0265 14.6778 11.0242 14.2646C12.0219 13.8513 12.8746 13.1515 13.4746 12.2536C14.0745 11.3557 14.3948 10.3001 14.3948 9.22017C14.3931 7.7726 13.8173 6.38479 12.7937 5.36121C11.7701 4.33762 10.3823 3.76184 8.93477 3.76017Z" fill="#1E6091"/>
<path d="M8.93523 25.7791C8.72722 25.7795 8.52237 25.7282 8.33909 25.6298C8.15581 25.5314 7.99985 25.389 7.88523 25.2154C5.55003 21.6941 0.115234 13.0841 0.115234 9.22015C0.115234 6.88094 1.04448 4.63754 2.69855 2.98346C4.35262 1.32939 6.59602 0.400146 8.93523 0.400146C11.2744 0.400146 13.5178 1.32939 15.1719 2.98346C16.826 4.63754 17.7552 6.88094 17.7552 9.22015C17.7552 13.0841 12.3204 21.6941 9.98313 25.2154C9.86871 25.3887 9.71309 25.5309 9.5302 25.6293C9.34732 25.7276 9.14289 25.7791 8.93523 25.7791ZM8.93523 1.24015C6.81952 1.24248 4.79113 2.08398 3.2951 3.58001C1.79907 5.07605 0.957569 7.10443 0.955234 9.22015C0.955234 12.9581 6.79659 22.0532 8.58705 24.7513C8.62671 24.8066 8.67898 24.8517 8.73953 24.8828C8.80008 24.9139 8.86717 24.9301 8.93523 24.9301C9.0033 24.9301 9.07039 24.9139 9.13094 24.8828C9.19149 24.8517 9.24376 24.8066 9.28341 24.7513C11.0739 22.0532 16.9152 12.9581 16.9152 9.22015C16.9129 7.10443 16.0714 5.07605 14.5754 3.58001C13.0793 2.08398 11.0509 1.24248 8.93523 1.24015Z" fill="#1E6091"/>
<path d="M7.6749 12.5074C7.50946 12.5078 7.34559 12.4754 7.19271 12.4122C7.03983 12.349 6.90096 12.2562 6.78408 12.1391L4.40814 9.76313C4.17182 9.52682 4.03906 9.2063 4.03906 8.8721C4.03906 8.5379 4.17182 8.21739 4.40814 7.98107C4.64445 7.74476 4.96497 7.612 5.29917 7.612C5.63337 7.612 5.95388 7.74476 6.1902 7.98107L7.6749 9.46619L10.9417 6.19943C11.0583 6.08085 11.1973 5.98654 11.3505 5.92193C11.5038 5.85733 11.6683 5.82371 11.8347 5.82301C12.001 5.82231 12.1658 5.85455 12.3196 5.91787C12.4734 5.98119 12.6132 6.07434 12.7308 6.19194C12.8484 6.30954 12.9416 6.44926 13.005 6.60305C13.0683 6.75684 13.1006 6.92165 13.0999 7.08798C13.0993 7.25431 13.0657 7.41886 13.0011 7.57214C12.9366 7.72543 12.8423 7.86441 12.7237 7.98107L8.56572 12.1391C8.44884 12.2562 8.30997 12.349 8.15709 12.4122C8.0042 12.4754 7.84033 12.5078 7.6749 12.5074ZM5.29938 8.45231C5.21629 8.45225 5.13504 8.47683 5.06593 8.52295C4.99681 8.56907 4.94293 8.63465 4.91109 8.7114C4.87926 8.78816 4.87091 8.87262 4.88709 8.95412C4.90328 9.03562 4.94327 9.11049 5.00202 9.16925L7.37796 11.5452C7.45672 11.6239 7.56353 11.6682 7.6749 11.6682C7.78627 11.6682 7.89308 11.6239 7.97184 11.5452L12.1298 7.38719C12.2063 7.30798 12.2487 7.20189 12.2477 7.09176C12.2468 6.98164 12.2026 6.8763 12.1247 6.79843C12.0469 6.72056 11.9415 6.67639 11.8314 6.67543C11.7213 6.67447 11.6152 6.71681 11.536 6.79331L7.97226 10.357C7.93322 10.3961 7.88686 10.427 7.83583 10.4482C7.78481 10.4693 7.73012 10.4801 7.6749 10.4801C7.56352 10.48 7.45671 10.4358 7.37796 10.357L5.59632 8.57495C5.5175 8.49634 5.4107 8.45223 5.29938 8.45231Z" fill="#1E6091"/>
</svg>
