<svg width="42" height="42" viewBox="0 0 42 42" fill="none" xmlns="http://www.w3.org/2000/svg">
<g clip-path="url(#clip0_595_832)">
<path d="M41.6355 30.5583L37.3305 28.4058L34.5906 21.2789C34.5584 21.1946 34.5091 21.1179 34.4459 21.0535C34.3826 20.9892 34.3068 20.9386 34.2231 20.9048L17.223 14.1093C17.1041 14.062 16.974 14.0505 16.8487 14.0761C16.7233 14.1018 16.6082 14.1635 16.5175 14.2537L14.2501 16.5211C14.1611 16.6119 14.1004 16.7266 14.0754 16.8512C14.0503 16.9759 14.062 17.1051 14.1091 17.2233L20.9045 34.2234C20.9383 34.3071 20.9889 34.3829 21.0533 34.4461C21.1176 34.5094 21.1943 34.5587 21.2786 34.5909L28.4055 37.3308L30.558 41.6358C30.6033 41.7307 30.6708 41.8133 30.7547 41.8767C30.8386 41.9401 30.9366 41.9824 31.0403 42C31.0752 42.0032 31.1104 42.0032 31.1453 42C31.3191 41.9992 31.4855 41.9296 31.608 41.8064L41.8061 31.6083C41.8811 31.5358 41.9379 31.4466 41.9715 31.3478C42.0052 31.2491 42.0148 31.1438 41.9997 31.0406C41.9821 30.9369 41.9398 30.8389 41.8764 30.755C41.813 30.6711 41.7304 30.6036 41.6355 30.5583ZM15.4839 17.1379L15.8481 16.777L24.3105 25.2393C23.7528 26.0296 23.5119 27.0004 23.6355 27.9597C23.7591 28.919 24.2382 29.797 24.978 30.4201C25.7177 31.0432 26.6644 31.366 27.6308 31.3247C28.5971 31.2834 29.5128 30.881 30.1967 30.197C30.8807 29.5131 31.2831 28.5974 31.3244 27.6311C31.3657 26.6647 31.0429 25.718 30.4198 24.9782C29.7967 24.2385 28.9187 23.7594 27.9594 23.6358C27.0001 23.5122 26.0293 23.7531 25.2391 24.3108L16.7767 15.8484L17.1376 15.4842L33.4684 22.0172L36.0442 28.7175L28.7172 36.0445L22.0169 33.4687L15.4839 17.1379ZM27.4637 24.9145C28.0535 24.9154 28.6248 25.1207 29.0802 25.4955C29.5356 25.8704 29.8469 26.3915 29.9612 26.9701C30.0754 27.5487 29.9856 28.1491 29.7068 28.6688C29.4281 29.1886 28.9778 29.5957 28.4326 29.8207C27.8874 30.0457 27.2811 30.0748 26.7169 29.9029C26.1527 29.731 25.6656 29.3688 25.3384 28.878C25.0113 28.3872 24.8645 27.7982 24.923 27.2113C24.9814 26.6244 25.2416 26.076 25.6591 25.6593C26.1382 25.1818 26.7872 24.9139 27.4637 24.9145ZM31.3258 40.2347L29.6851 36.9534L36.9466 29.692L40.2278 31.3326L31.3258 40.2347Z" fill="#1E6091"/>
<path d="M12.5507 35.1094C12.4252 34.9908 12.2591 34.9247 12.0864 34.9247C11.9138 34.9247 11.7476 34.9908 11.6221 35.1094L10.7887 35.9428C8.56459 32.9242 7.33763 29.287 7.27882 25.538C7.22 21.7889 8.33226 18.115 10.4606 15.0281C11.0982 15.379 11.8324 15.5138 12.5531 15.4123C13.2738 15.3108 13.9422 14.9784 14.4581 14.4651C14.974 13.9518 15.3097 13.285 15.4148 12.5649C15.5199 11.8447 15.3889 11.1099 15.0412 10.4705C18.1281 8.34215 21.802 7.22989 25.551 7.28871C29.3 7.34753 32.9373 8.57448 35.9559 10.7986L35.1093 11.6222C34.9873 11.7452 34.9189 11.9115 34.919 12.0848C34.9185 12.1712 34.9351 12.2568 34.9677 12.3368C35.0004 12.4167 35.0485 12.4895 35.1093 12.5508L38.0034 15.4219C38.1263 15.5441 38.2927 15.6127 38.466 15.6127C38.6394 15.6127 38.8057 15.5441 38.9287 15.4219L41.8064 12.5442C41.8674 12.4833 41.9158 12.4109 41.9488 12.3312C41.9818 12.2515 41.9988 12.1662 41.9988 12.0799C41.9988 11.9937 41.9818 11.9083 41.9488 11.8286C41.9158 11.7489 41.8674 11.6766 41.8064 11.6156L38.9287 8.73796C38.8057 8.61573 38.6394 8.54713 38.466 8.54713C38.2927 8.54713 38.1263 8.61573 38.0034 8.73796L36.891 9.84374C34.1496 7.78081 30.9084 6.48471 27.5004 6.08856C24.0924 5.6924 20.6404 6.21045 17.4988 7.58952L21.2821 3.81608C21.7111 4.02106 22.1988 4.06745 22.6587 3.94704C23.1187 3.82663 23.5211 3.5472 23.7946 3.15832C24.0681 2.76944 24.195 2.29625 24.1528 1.8227C24.1106 1.34915 23.902 0.905858 23.5641 0.571458C23.2261 0.237058 22.7807 0.0331742 22.3067 -0.00402397C21.8327 -0.0412221 21.3609 0.0906705 20.9749 0.368255C20.589 0.64584 20.3138 1.05117 20.1982 1.51234C20.0827 1.97351 20.1342 2.4607 20.3437 2.88749L13.9584 9.28265C13.3101 8.84775 12.5309 8.65145 11.7539 8.72727C10.9769 8.80308 10.2503 9.14632 9.69829 9.69834C9.14627 10.2504 8.80303 10.9769 8.72722 11.7539C8.6514 12.5309 8.84771 13.3101 9.2826 13.9584L2.88744 20.3437C2.45899 20.135 1.97039 20.0848 1.50847 20.2023C1.04655 20.3197 0.641224 20.5971 0.364523 20.9852C0.0878206 21.3733 -0.0423392 21.8469 -0.00282795 22.3219C0.0366833 22.7968 0.243307 23.2424 0.580326 23.5795C0.917345 23.9165 1.36293 24.1231 1.83791 24.1626C2.31288 24.2021 2.78649 24.072 3.17456 23.7953C3.56263 23.5186 3.84004 23.1132 3.95749 22.6513C4.07493 22.1894 4.02482 21.7008 3.81604 21.2723L7.59932 17.4989C6.21887 20.6396 5.69918 24.0912 6.09361 27.4991C6.48803 30.9071 7.78236 34.1487 9.84369 36.8911L8.73463 38.0034C8.6124 38.1264 8.5438 38.2927 8.5438 38.4661C8.5438 38.6395 8.6124 38.8058 8.73463 38.9287L11.6123 41.8064C11.7348 41.9296 11.9012 41.9993 12.0749 42C12.1615 42.0001 12.2473 41.983 12.3273 41.9498C12.4072 41.9165 12.4798 41.8678 12.5409 41.8064L15.4218 38.9287C15.544 38.8058 15.6127 38.6395 15.6127 38.4661C15.6127 38.2927 15.544 38.1264 15.4218 38.0034L12.5507 35.1094ZM38.4726 10.1226L40.4217 12.0717L38.4726 14.0208L36.5235 12.0717L38.4726 10.1226ZM21.6562 1.51921C21.7537 1.4209 21.8782 1.35377 22.014 1.32634C22.1497 1.29891 22.2905 1.31242 22.4185 1.36515C22.5466 1.41788 22.6561 1.50746 22.7331 1.62251C22.8102 1.73757 22.8513 1.87292 22.8513 2.0114C22.8513 2.14987 22.8102 2.28522 22.7331 2.40028C22.6561 2.51534 22.5466 2.60491 22.4185 2.65764C22.2905 2.71037 22.1497 2.72388 22.014 2.69645C21.8782 2.66903 21.7537 2.6019 21.6562 2.50358C21.5915 2.43898 21.5402 2.36225 21.5052 2.2778C21.4702 2.19335 21.4521 2.10282 21.4521 2.0114C21.4521 1.91997 21.4702 1.82945 21.5052 1.74499C21.5402 1.66054 21.5915 1.58381 21.6562 1.51921ZM10.6312 10.6312C10.8218 10.4398 11.0483 10.2878 11.2977 10.1841C11.5472 10.0805 11.8146 10.0271 12.0848 10.0271C12.3549 10.0271 12.6224 10.0805 12.8719 10.1841C13.1213 10.2878 13.3478 10.4398 13.5384 10.6312C13.8264 10.9188 14.0227 11.2854 14.1024 11.6846C14.182 12.0838 14.1415 12.4976 13.9858 12.8737C13.8302 13.2498 13.5665 13.5713 13.2281 13.7976C12.8897 14.0238 12.4918 14.1445 12.0848 14.1445C11.6777 14.1445 11.2798 14.0238 10.9414 13.7976C10.603 13.5713 10.3394 13.2498 10.1837 12.8737C10.0281 12.4976 9.98757 12.0838 10.0672 11.6846C10.1469 11.2854 10.3431 10.9188 10.6312 10.6312ZM2.50682 22.6406C2.37284 22.7523 2.20192 22.8099 2.02765 22.8021C1.85338 22.7942 1.68835 22.7214 1.565 22.5981C1.44164 22.4747 1.36888 22.3097 1.36101 22.1354C1.35313 21.9611 1.41072 21.7902 1.52244 21.6562C1.65376 21.5272 1.83051 21.4549 2.01463 21.4549C2.19875 21.4549 2.3755 21.5272 2.50682 21.6562C2.5715 21.7208 2.62282 21.7976 2.65783 21.882C2.69285 21.9665 2.71087 22.057 2.71087 22.1484C2.71087 22.2399 2.69285 22.3304 2.65783 22.4148C2.62282 22.4993 2.5715 22.576 2.50682 22.6406ZM12.0848 40.402L10.1357 38.453L12.0848 36.5039L14.0338 38.453L12.0848 40.402Z" fill="#1E6091"/>
</g>
<defs>
<clipPath id="clip0_595_832">
<rect width="42" height="42" fill="white"/>
</clipPath>
</defs>
</svg>
