<svg width="42" height="42" viewBox="0 0 42 42" fill="none" xmlns="http://www.w3.org/2000/svg">
<g clip-path="url(#clip0_595_827)">
<path d="M30.5111 18.1814V10.2331C30.5111 10.0056 30.406 9.79535 30.2573 9.62904L21.346 0.271408C21.1797 0.0964506 20.9433 0 20.7071 0H6.57852C3.97018 0 1.88672 2.12704 1.88672 4.7357V31.4519C1.88672 34.0605 3.97018 36.1527 6.57852 36.1527H17.7309C19.8403 39.654 23.6746 41.9999 28.0425 41.9999C34.6777 41.9999 40.0962 36.6077 40.0962 29.9638C40.1052 24.1601 35.9383 19.3106 30.5111 18.1814ZM21.5825 3.07264L27.5612 9.36629H23.6833C22.5278 9.36629 21.5825 8.41236 21.5825 7.25687V3.07264ZM6.57852 34.4018C4.94174 34.4018 3.63757 33.0887 3.63757 31.4519V4.7357C3.63757 3.08995 4.94174 1.75085 6.57852 1.75085H19.8317V7.25687C19.8317 9.38391 21.5562 11.1171 23.6833 11.1171H28.7602V17.9536C28.4978 17.945 28.2876 17.9187 28.0601 17.9187C25.0051 17.9187 22.1952 19.0918 20.0768 20.9301H8.95966C8.47805 20.9301 8.08424 21.3239 8.08424 21.8052C8.08424 22.2868 8.47805 22.6806 8.95966 22.6806H18.4487C17.827 23.5561 17.3105 24.4315 16.908 25.3944H8.95966C8.47805 25.3944 8.08424 25.7882 8.08424 26.2698C8.08424 26.7511 8.47805 27.1453 8.95966 27.1453H16.3389C16.1201 28.0207 16.0063 28.9922 16.0063 29.9638C16.0063 31.5394 16.3127 33.0976 16.8641 34.4108H6.57852V34.4018ZM28.0514 40.2581C22.3791 40.2581 17.7658 35.6448 17.7658 29.9724C17.7658 24.3001 22.3701 19.6868 28.0514 19.6868C33.7324 19.6868 38.3367 24.3001 38.3367 29.9724C38.3367 35.6448 33.7238 40.2581 28.0514 40.2581Z" fill="#017B4E"/>
<path d="M8.95941 18.2952H17.8268C18.3084 18.2952 18.7022 17.901 18.7022 17.4197C18.7022 16.9381 18.3084 16.5443 17.8268 16.5443H8.95941C8.4778 16.5443 8.08398 16.9381 8.08398 17.4197C8.08398 17.901 8.4778 18.2952 8.95941 18.2952Z" fill="#017B4E"/>
<path d="M28.6718 23.5122C28.5055 23.3372 28.278 23.2321 28.0329 23.2321C27.7877 23.2321 27.5602 23.3372 27.3939 23.5122L22.2641 29.0182C21.9315 29.3684 21.9578 29.9285 22.308 30.2525C22.6582 30.5851 23.227 30.5588 23.5596 30.2089L27.1837 26.331V35.8899C27.1837 36.3715 27.5775 36.7653 28.0591 36.7653C28.5404 36.7653 28.9346 36.3715 28.9346 35.8899V26.331L32.5321 30.2089C32.7074 30.3925 32.9349 30.489 33.1713 30.489C33.3812 30.489 33.5914 30.4102 33.7664 30.2525C34.1166 29.9199 34.1429 29.3684 33.8103 29.0182L28.6718 23.5122Z" fill="#017B4E"/>
</g>
<defs>
<clipPath id="clip0_595_827">
<rect width="42" height="42" fill="white"/>
</clipPath>
</defs>
</svg>
